<svg xmlns="http://www.w3.org/2000/svg" width="256" height="256" viewBox="0 0 256 256">
  <!-- Polylog extension icon ("Ember"): three repositories' histories merge into one log.
       Source for media/icon.png (256×256). The PNG ships; this file does not. -->
  <defs>
    <linearGradient id="tile" x1="0" y1="0" x2="1" y2="1"><stop offset="0" stop-color="#261410"/><stop offset="1" stop-color="#120807"/></linearGradient>
    <linearGradient id="edge" x1="0" y1="0" x2="1" y2="1"><stop offset="0" stop-color="#ef4444"/><stop offset=".5" stop-color="#f97316"/><stop offset="1" stop-color="#facc15"/></linearGradient>
    <linearGradient id="lane1" gradientUnits="userSpaceOnUse" x1="50" y1="0" x2="160" y2="0"><stop offset="0" stop-color="#f87171"/><stop offset="1" stop-color="#fff7ed"/></linearGradient>
    <linearGradient id="lane2" gradientUnits="userSpaceOnUse" x1="50" y1="0" x2="160" y2="0"><stop offset="0" stop-color="#fb923c"/><stop offset="1" stop-color="#fff7ed"/></linearGradient>
    <linearGradient id="lane3" gradientUnits="userSpaceOnUse" x1="50" y1="0" x2="160" y2="0"><stop offset="0" stop-color="#fde047"/><stop offset="1" stop-color="#fff7ed"/></linearGradient>
    <filter id="glow" x="-30%" y="-30%" width="160%" height="160%"><feGaussianBlur stdDeviation="5" result="b"/><feMerge><feMergeNode in="b"/><feMergeNode in="SourceGraphic"/></feMerge></filter>
  </defs>
  <rect x="8" y="8" width="240" height="240" rx="58" fill="url(#tile)"/>
  <rect x="11" y="11" width="234" height="234" rx="55" fill="none" stroke="url(#edge)" stroke-width="6"/>
  <g fill="none" stroke-width="15" stroke-linecap="round" filter="url(#glow)">
    <path d="M50 78 C 104 78, 112 128, 152 128" stroke="url(#lane1)"/>
    <path d="M50 178 C 104 178, 112 128, 152 128" stroke="url(#lane3)"/>
    <path d="M50 128 H 152" stroke="url(#lane2)"/>
    <path d="M150 128 H 206" stroke="#fff7ed"/>
  </g>
  <circle cx="50" cy="78" r="14" fill="#f87171"/>
  <circle cx="50" cy="128" r="14" fill="#fb923c"/>
  <circle cx="50" cy="178" r="14" fill="#fde047"/>
  <circle cx="206" cy="128" r="21" fill="#fff7ed"/>
  <circle cx="206" cy="128" r="9" fill="#120807" fill-opacity=".45"/>
</svg>
